External Loads File
version=1
nRows=46
nColumns=13
Range=5.000000e-03-10 seconds
endheader
time 	forceRightX 	forceRightY 	forceRightZ 	pointRightX 	pointRightY 	pointRightZ 	forceLeftX 	forceLeftY 	forceLeftZ 	pointLeftX 	pointLeftY 	pointLeftZ 		
5.005000 -80.948467 -127.545498 -0.000000 0.234191 0.515946 -0.122649 108.598143 631.690623 -0.000000 0.292320 0.156625 -0.366315
5.010000 -89.287146 -135.115083 -0.000000 0.243841 0.518660 -0.122938 120.340464 598.580097 -0.000000 0.283101 0.154535 -0.366119
5.015000 -96.855792 -139.795818 -0.000000 0.253851 0.520674 -0.122955 131.477317 564.085804 -0.000000 0.273759 0.153165 -0.365955
5.020000 -103.209394 -141.334607 -0.000000 0.263388 0.521853 -0.123201 140.548197 528.081007 -0.000000 0.264277 0.152514 -0.365849
5.025000 -108.342969 -139.390990 -0.000000 0.273132 0.522285 -0.123295 147.783780 490.164270 -0.000000 0.255048 0.152621 -0.365556
5.030000 -112.243132 -133.858783 -0.000000 0.282875 0.521968 -0.123396 152.931202 450.214802 -0.000000 0.245820 0.153498 -0.365338
5.035000 -114.846458 -124.912046 -0.000000 0.292337 0.520560 -0.123277 155.139880 408.608209 -0.000000 0.236826 0.155074 -0.365135
5.040000 -116.413053 -112.667523 -0.000000 0.301478 0.518690 -0.123146 154.154834 365.908951 -0.000000 0.228147 0.157433 -0.364804
5.045000 -117.509766 -97.116604 -0.000000 0.310259 0.515986 -0.122968 150.163578 322.858647 -0.000000 0.219726 0.160472 -0.364570
5.050000 -118.866458 -78.195668 -0.000000 0.318632 0.512553 -0.122695 143.420372 280.437342 -0.000000 0.211616 0.164186 -0.364281
5.055000 -121.428294 -55.549385 -0.000000 0.326721 0.508268 -0.122358 134.737874 239.483901 -0.000000 0.203599 0.168553 -0.364005
5.060000 -125.946744 -28.970276 -0.000000 0.334429 0.503133 -0.121998 124.432143 201.093054 -0.000000 0.196073 0.173497 -0.363751
5.065000 -133.149442 2.065727 -0.000000 0.341733 0.497110 -0.121490 113.409808 165.905141 -0.000000 0.188777 0.178994 -0.363400
5.070000 -143.400524 38.097076 -0.000000 0.348802 0.489913 -0.120661 102.485066 134.341791 -0.000000 0.181693 0.185052 -0.363696
5.075000 -156.733580 79.191123 -0.000000 0.355357 0.481861 -0.119884 92.067861 106.816978 -0.000000 0.174921 0.191592 -0.363192
5.080000 -172.866372 125.181449 -0.000000 0.361395 0.473302 -0.118952 82.666860 83.371708 -0.000000 0.168371 0.198616 -0.362155
5.085000 -190.765477 175.926998 -0.000000 0.367376 0.464233 -0.118468 74.788478 63.650252 -0.000000 0.161597 0.206105 -0.360001
5.090000 -210.166939 229.687226 -0.000000 0.372872 0.454849 -0.118087 68.280319 47.662200 -0.000000 0.155726 0.214021 -0.359652
5.095000 -229.534070 285.846717 -0.000000 0.378066 0.444829 -0.117941 63.338526 34.758245 -0.000000 0.150354 0.222692 -0.359343
5.100000 -248.316282 342.808881 -0.000000 0.382897 0.434330 -0.117597 59.736477 24.610427 -0.000000 0.145293 0.231324 -0.359397
5.105000 -265.928450 399.356211 -0.000000 0.387132 0.423610 -0.117365 57.230866 16.818703 -0.000000 0.140791 0.240425 -0.359340
5.110000 -281.721114 454.671870 -0.000000 0.391030 0.412720 -0.117136 55.539871 11.003830 -0.000000 0.136676 0.249709 -0.359296
5.115000 -295.120888 508.209925 -0.000000 0.394482 0.401652 -0.117030 54.383851 6.856050 -0.000000 0.133091 0.259308 -0.359211
5.120000 -306.265351 559.322160 -0.000000 0.397477 0.390424 -0.116957 53.530242 4.178939 -0.000000 0.130130 0.268840 -0.359228
5.125000 -313.841852 608.439259 -0.000000 0.399933 0.379123 -0.116856 52.841859 2.626262 -0.000000 0.127759 0.278902 -0.359390
5.130000 -317.361368 655.663712 -0.000000 0.401985 0.367679 -0.117025 52.246348 1.911289 -0.000000 0.125759 0.289259 -0.359583
5.135000 -316.503397 701.083854 -0.000000 0.403712 0.356011 -0.116958 51.719012 1.725832 -0.000000 0.124307 0.299857 -0.359618
5.140000 -311.789544 744.374517 -0.000000 0.404744 0.344242 -0.116772 51.248362 1.808411 -0.000000 0.123484 0.310570 -0.359798
5.145000 -303.093629 785.417570 -0.000000 0.405111 0.332489 -0.116776 50.827239 1.852162 -0.000000 0.123211 0.321440 -0.359930
5.150000 -290.687481 823.835043 -0.000000 0.404897 0.320758 -0.116272 50.444677 1.598280 -0.000000 0.123517 0.332334 -0.360026
5.155000 -274.722563 859.261056 -0.000000 0.404458 0.309106 -0.116647 50.080326 0.797181 -0.000000 0.124206 0.343354 -0.360095
5.160000 -254.387243 891.564528 -0.000000 0.403273 0.297575 -0.116245 49.691366 -0.835474 -0.000000 0.125542 0.354803 -0.360106
5.165000 -233.374728 919.286307 -0.000000 0.401655 0.286358 -0.116118 49.212477 -3.285878 -0.000000 0.127334 0.365833 -0.360065
5.170000 -210.245588 942.523712 -0.000000 0.399447 0.275472 -0.115207 48.568347 -6.761024 -0.000000 0.129778 0.376899 -0.360117
5.175000 -185.660459 960.806365 -0.000000 0.396480 0.264937 -0.116177 47.683404 -11.272995 -0.000000 0.132551 0.387935 -0.359932
5.180000 -159.813108 973.886455 -0.000000 0.392745 0.254769 -0.115420 46.474859 -16.763925 -0.000000 0.135833 0.398859 -0.359813
5.185000 -134.258329 981.411515 -0.000000 0.388661 0.244989 -0.115276 44.876719 -22.982609 -0.000000 0.139495 0.409572 -0.359644
5.190000 -108.403509 983.442227 -0.000000 0.383988 0.235613 -0.115130 42.790484 -29.630785 -0.000000 0.143787 0.420073 -0.359404
5.195000 -83.023250 979.813039 -0.000000 0.378897 0.226660 -0.115071 40.175054 -36.205747 -0.000000 0.148779 0.430160 -0.359104
5.200000 -58.629053 970.424870 -0.000000 0.373388 0.218149 -0.115449 37.028539 -42.135715 -0.000000 0.154067 0.439973 -0.361304
5.205000 -35.171275 955.309876 -0.000000 0.367314 0.210097 -0.115399 33.336334 -46.870837 -0.000000 0.159312 0.449923 -0.360481
5.210000 -13.204124 934.633666 -0.000000 0.360589 0.202523 -0.115011 29.095748 -49.897275 -0.000000 0.165347 0.458626 -0.360295
5.215000 9.218254 908.805008 -0.000000 0.353445 0.195444 -0.114948 24.159667 -50.873007 -0.000000 0.172652 0.466684 -0.360367
5.220000 27.376213 878.520451 -0.000000 0.345865 0.188880 -0.114929 18.753103 -49.426569 -0.000000 0.179260 0.473947 -0.360669
5.225000 44.714045 844.651322 -0.000000 0.337867 0.182848 -0.114725 12.657184 -45.607053 -0.000000 0.186325 0.480987 -0.360500
5.230000 60.227493 808.181408 -0.000000 0.329451 0.177367 -0.114471 5.913419 -39.533749 -0.000000 0.194014 0.486385 -0.360412
